http://kickass.to/final-destination-5-2011-bdrip-xvid-ac3-hq-hive-cm8-t6043197.html
Download Final Destination 5 2011 BDRip XVID AC3 HQ Hive-CM8 Torrent - KickassTorrents
login / register
Community
blog
FAQ
Browse
latest
Search
Advanced search 0
0
report fake
Final Destination 5 2011 BDRip XVID AC3 HQ Hive-CM8
seeders: 0
leechers: 0
Download torrent
Added on Dec 11, 2011 in Movies	Torrent verified.	Downloaded 0 times.
Main
Technical
Trailer
Comments Movie: Final Destination 5
IMDB link: 1622979
Detected quality: HDRiP
IMDB rating: 6.0 (29,953 votes) RottenTomatoes: 61% 52% Genres: Thriller, Horror add Final Destination 5 to bookmarks
Release date: 10 August 2011
Language:
English
Subtitles:
English Cast: Devon Sawa, Kerr Smith, Courtney B. Vance, Forbes Angus, Emma Bell, P.J. Byrne, Nicholas D'Agosto, Mike Dopud, Jasmin Dring, Arlen Escarpeta and others Available in versions: 1080p720pBlu-RayBDRipHDRiPDVDDVDRipx264MPEG-4TeleSyncCam Final Destination 5 2011 BDRip XVID AC3 HQ Hive-CM8 (Size: 1.4 GB)
subs
Final.Destination.5.2011.BDRip.XVID.AC3.HQ.Hive-CM8.srt
79.09 KB
Final.Destination.5.2011.BDRip.XVID.AC3.HQ.Hive-CM8.avi
1.39 GB
Final.Destination.5.2011.BDRip.XVID.AC3.HQ.Hive-CM8.nfo
3.81 KB
Read this before playing this Video.txt
138 bytes
sample.avi
11.39 MB
torrent downloaded from www.scenetime.com.txt
138 bytes
Description
,
. http://www.scenetime.com/signup.php ---> Hottest scene tracker on the net !!!
Scenetime lucky draw is started , join now and be the winner . offer is limited Join Now http://www.scenetime.com/signup.php
seed back for speed
...................................NFO:.................................................Final.Destination.5.2011.BDRip.XVID.AC3.HQ.Hive-CM8Thx Hive
CM8 Doing It Right The First Time :DSource: Bluray
Video: 720x304 @bitrate 1700 2pass
Audio: English DTS to AC3 5.1 @448
Sample: Yes, included
Subs: Yes, English in srt /subs
http://www.imdb.com/title/tt1622979/Notes:
i am very busy atm, will try to get the major movies done.General
Complete name : Final.Destination.5.2011.BDRip.XVID.AC3.HQ.Hive-CM8.avi
Format : AVI
Format/Info : Audio Video Interleave
File size : 1.39 GiB
Duration : 1h 31mn
Overall bit rate : 2 160 Kbps
Writing application : Nandub v1.0rc2
Writing library : Nandub build 1853/release
Video
ID : 0
Format : MPEG-4 Visual
Format profile : Advanced Simple@L5
Format settings, BVOP : 1
Format settings, QPel : Yes
Format settings, GMC : No warppoints
Format settings, Matrix : Default (H.263)
Muxing mode : Packed bitstream
Codec ID : XVID
Codec ID/Hint : XviD
Duration : 1h 31mn
Bit rate : 1 702 Kbps
Width : 720 pixels
Height : 304 pixels
Display aspect ratio : 2.40:1
Frame rate : 23.976 fps
Color space : YUV
Chroma subsampling : 4:2:0
Bit depth : 8 bits
Scan type : Progressive
Compression mode : Lossy
Bits/(Pixel*Frame) : 0.324
Stream size : 1.09 GiB (79%)
Writing library : XviD 1.2.1 (UTC 2008-12-04)
Audio
ID : 1
Format : AC-3
Format/Info : Audio Coding 3
Mode extension : CM (complete main)
Codec ID : 2000
Duration : 1h 31mn
Bit rate mode : Constant
Bit rate : 448 Kbps
Channel(s) : 6 channels
Channel positions : Front: L C R, Side: L R, LFE
Sampling rate : 48.0 KHz
Bit depth : 16 bits
Compression mode : Lossy
Stream size : 294 MiB (21%)
Alignment : Split accross interleaves
Interleave, duration : 42 ms (1.00 video frame)
Interleave, preload duration : 500 msPlot:
Survivors of a suspension-bridge collapse learn there's no way you can cheat Death.Cast:
Nicholas D'Agosto ... Sam
Emma Bell ... Molly Harper
Miles Fisher ... Peter Friedkin
Ellen Wroe ... Candice Hooper
Arlen Escarpeta ... Nathan
Greetz
ViSiON,SPK,SANTi,3LT0N,FUSiON,YanKeeS,MAGNET,THC,LKRG,Feel-Free,FANTASIA-PLAY,FANTASIA-M,FLAWL3SS,
WBZ,ZMG,BHRG,NOVA,D2U,Vik,Rapeseed,T0XiC,SAFC,goldadvance,MEMORY100,KaN1vE,Unevano,Pinnz,Wayne
Mr Hive,and most P2P groups
Great Work Guys :D
LOOKING FOR ANYTHING YOU WANT TO LOOK AND SOUND BETTER
CM8@hushmail.com
Related Torrents
torrent name
size
files
age
seed
leech
1	Final Destination Saga 2000-2011 BDRip 1080p x264 extras-HighCode
Posted by HighCode in Movies > Highres Movies 45.6 GB
33
1 day
6
142
The Final Destination 2009 BDRip 1080p Dual Audio [Hindi 5.1 RM- Eng 5.1] Tariq Qureshi
Posted by tariq51 in Movies > Dubbed Movies 2.7 GB
6
5 months
9
39
Final Destination 3 2006 BDRip 1080p Dual Audio [Hindi 5.1 RM-Eng 5.1] Tariq Qureshi
Posted by tariq51 in Movies > Dubbed Movies 3.05 GB
6
5 months
7
36
The Final Destination 4 (2009) Tamil Dubbed BDRip 400MB
Posted by itz_theo in Movies > Dubbed Movies 402.32 MB
1
2 months
19
10
3	The Final Destination 4 (2009)3D HSBS 1080p BDrip Dual audio (Hindi 5.1- Eng 5.1)~tahar279279
Posted by tahar279279 in Movies > 3D Movies 4.41 GB
25
5 months
8
20
Sharing Widget
Download torrent
1.4 GB
seeders:0
leechers:0
Final Destination 5 2011 BDRip XVID AC3 HQ Hive-CM8
html bbcode Trackers
refresh
tracker name
Status
checked
seeders
leechers
downloads
udp://tracker.publicbt.com:80/announce
outdated
11 Dec 2011
-
-
-
http://tracker.openbittorrent.com/announce
outdated
11 Dec 2011
-
-
-
udp://tracker.openbittorrent.com:80/announce
outdated
11 Dec 2011
-
-
-
http://tracker.publicbt.com/announce
deleted
11 Dec 2011
-
-
-
µTorrent compatible trackers list
udp://tracker.publicbt.com:80/announce
http://tracker.openbittorrent.com/announce
udp://tracker.openbittorrent.com:80/announce
http://tracker.publicbt.com/announce
udp://tracker.openbittorrent.com/announce
Locations
name
ThePirateBay
Limetorrents
Torrent hash: 9b78254b8cc7734bb7bac239967d5f3f6cd49768
All Comments
audio
vote 1 awful
2
3
4
5
6
7
8
9
10 best
0/10
video vote 1 awful
2
3
4
5
6
7
8
9
10 best
0/10
please, leave only comments related to that torrent
Not seeing the captcha?
Captcha *:
Post as a guest
or sign-in
Not seeing the captcha?
Captcha *:
reply
Advertising (remove)
Latest Forum Threads
The War Series Threadby Slimoo 1 min. ago
What movie did you last watch? And what did you think of it? V.2!by hariscupina 4 min. ago
EDM RG Request Threadby mousR 5 min. ago
The Kickass Anime Community V.2!!!by iRocky 8 min. ago
[Q] How to replace old torrent for new torrent to gain seedsby Anette14 11 min. ago
Music Requestsby jojodiime 13 min. ago
Latest News
May'14 Updatesby KickassTorrents 1 month ago
April'14 Updatesby KickassTorrents 2 months ago
March upd.1 - Uploader rules fix and Torrents Day 2014by KickassTorrents 3 months ago
Blogroll
Question number (278)by man2014now 9 hours ago
Best Of The Bestby VikTSlick 15 hours ago
Question number (277)by man2014now yesterday
Number 100by The.Phoenix yesterday
Religion, Humanity, And The Search For Meaningby VikTSlick yesterday
Outside my Window Part 3by johnno23 2 days ago
Goodies
Firefox search plugin
uTorrent search template
Follow us on Twitter
Kickass wallpapers
Like us on Facebook
IRC official chat
Latest Searches
the fosters s01e18
just now
american
just now
RAAZ 3 (2D) 2012 Hindi 720p DvDRip x264 AAC 5.1.Hon3y
just now
winters tale
just now
xxx adams
just now
ass
just now
btra
just now
lupe fiasco old school love
just now
roxette listen
just now
mri geek squad
just now
blackjack
just now
Friends Links
Torrents.to
Torrent Downloads
TorrentReactor
Torrent Finder
Select Your Language
English
Afrikaans
Basque
Bengali
Bosnian
Chinese Simplified
Croatian
Czech
Danish
Dutch
Filipino
Finnish
French
Georgian
German
Greek
Hindi
Hungarian
Indonesian
Italian
Lithuanian
Malaysian
Norwegian
Pirate
Polish
Portuguese
Romanian
Russian
Serbian
Serbian-Cyrillic
Slovak
Spanish
Swedish
Telugu
Turkish
change language
rules
idea box
Achievements
trends
Latest Searches
torrent requests about
privacy
dmca
logos
contacts
api
chat
BitCoin: 19CWNopXCHSwWtWQ89NHC471LMn2Gy5j5G
Report a bug

